<svg id="visual" viewBox="0 0 1920 2160" width="1920" height="2160" xmlns="http://www.w3.org/2000/svg" xmlns:xlink="http://www.w3.org/1999/xlink" version="1.1"><rect x="0" y="0" width="1920" height="2160" fill="#001220"></rect><defs><linearGradient id="grad1_0" x1="0%" y1="0%" x2="100%" y2="100%"><stop offset="30%" stop-color="#421270" stop-opacity="1"></stop><stop offset="70%" stop-color="#421270" stop-opacity="1"></stop></linearGradient></defs><defs><linearGradient id="grad1_1" x1="0%" y1="0%" x2="100%" y2="100%"><stop offset="30%" stop-color="#421270" stop-opacity="1"></stop><stop offset="70%" stop-color="#0c1e5d" stop-opacity="1"></stop></linearGradient></defs><defs><linearGradient id="grad1_2" x1="0%" y1="0%" x2="100%" y2="100%"><stop offset="30%" stop-color="#001b40" stop-opacity="1"></stop><stop offset="70%" stop-color="#0c1e5d" stop-opacity="1"></stop></linearGradient></defs><defs><linearGradient id="grad1_3" x1="0%" y1="0%" x2="100%" y2="100%"><stop offset="30%" stop-color="#001b40" stop-opacity="1"></stop><stop offset="70%" stop-color="#001220" stop-opacity="1"></stop></linearGradient></defs><defs><linearGradient id="grad2_0" x1="0%" y1="0%" x2="100%" y2="100%"><stop offset="30%" stop-color="#421270" stop-opacity="1"></stop><stop offset="70%" stop-color="#421270" stop-opacity="1"></stop></linearGradient></defs><defs><linearGradient id="grad2_1" x1="0%" y1="0%" x2="100%" y2="100%"><stop offset="30%" stop-color="#0c1e5d" stop-opacity="1"></stop><stop offset="70%" stop-color="#421270" stop-opacity="1"></stop></linearGradient></defs><defs><linearGradient id="grad2_2" x1="0%" y1="0%" x2="100%" y2="100%"><stop offset="30%" stop-color="#0c1e5d" stop-opacity="1"></stop><stop offset="70%" stop-color="#001b40" stop-opacity="1"></stop></linearGradient></defs><defs><linearGradient id="grad2_3" x1="0%" y1="0%" x2="100%" y2="100%"><stop offset="30%" stop-color="#001220" stop-opacity="1"></stop><stop offset="70%" stop-color="#001b40" stop-opacity="1"></stop></linearGradient></defs><g transform="translate(1920, 0)"><path d="M0 1092C-163.6 1167.2 -327.2 1242.5 -512 1236.2C-696.9 1229.8 -902.9 1142 -994.2 994.2C-1085.5 846.4 -1061.9 638.7 -1117.9 463C-1173.9 287.4 -1309.4 143.7 -1445 0L0 0Z" fill="#001730"></path><path d="M0 819C-122.7 875.4 -245.4 931.9 -384 927.1C-522.6 922.4 -677.2 856.5 -745.6 745.6C-814.1 634.8 -796.4 479 -838.4 347.3C-880.4 215.5 -982.1 107.8 -1083.7 0L0 0Z" fill="#001d4f"></path><path d="M0 546C-81.8 583.6 -163.6 621.2 -256 618.1C-348.4 614.9 -451.5 571 -497.1 497.1C-542.7 423.2 -530.9 319.4 -558.9 231.5C-586.9 143.7 -654.7 71.8 -722.5 0L0 0Z" fill="#281b68"></path><path d="M0 273C-40.9 291.8 -81.8 310.6 -128 309C-174.2 307.5 -225.7 285.5 -248.5 248.5C-271.4 211.6 -265.5 159.7 -279.5 115.8C-293.5 71.8 -327.4 35.9 -361.2 0L0 0Z" fill="#421270"></path></g><g transform="translate(0, 2160)"><path d="M0 -1368C196.6 -1391 393.3 -1414 553 -1335C712.7 -1256 835.5 -1075.1 910.8 -910.8C986 -746.4 1013.8 -598.7 1085.6 -449.7C1157.3 -300.6 1273.2 -150.3 1389 0L0 0Z" fill="#001730"></path><path d="M0 -1026C147.5 -1043.2 294.9 -1060.5 414.7 -1001.2C534.5 -942 626.6 -806.3 683.1 -683.1C739.5 -559.8 760.3 -449 814.2 -337.2C868 -225.5 954.9 -112.7 1041.8 0L0 0Z" fill="#001d4f"></path><path d="M0 -684C98.3 -695.5 196.6 -707 276.5 -667.5C356.3 -628 417.7 -537.5 455.4 -455.4C493 -373.2 506.9 -299.3 542.8 -224.8C578.7 -150.3 636.6 -75.2 694.5 0L0 0Z" fill="#281b68"></path><path d="M0 -342C49.2 -347.7 98.3 -353.5 138.2 -333.7C178.2 -314 208.9 -268.8 227.7 -227.7C246.5 -186.6 253.4 -149.7 271.4 -112.4C289.3 -75.2 318.3 -37.6 347.3 0L0 0Z" fill="#421270"></path></g></svg>